<mxfile host="app.diagrams.net" modified="2021-04-14T01:10:42.042Z" agent="5.0 (Windows NT 10.0; Win64; x64) AppleWebKit/537.36 (KHTML, like Gecko) Chrome/89.0.4389.114 Safari/537.36" etag="sIr5fQYIY1h6Wsdq9uAa" version="14.6.0" type="github">
  <diagram id="8w8wabQFdg4WhhDFVWYx" name="Page-1">
    <mxGraphModel dx="1673" dy="896" grid="1" gridSize="10" guides="1" tooltips="1" connect="1" arrows="1" fold="1" page="1" pageScale="1" pageWidth="827" pageHeight="1169" math="0" shadow="0">
      <root>
        <mxCell id="0" />
        <mxCell id="1" parent="0" />
        <mxCell id="OhrNE6VcvfpsGNgGxQ-j-2" value="nodeapp" style="swimlane;" vertex="1" parent="1">
          <mxGeometry y="20" width="220" height="60" as="geometry" />
        </mxCell>
        <mxCell id="OhrNE6VcvfpsGNgGxQ-j-3" value="網站" style="text;html=1;align=center;verticalAlign=middle;resizable=0;points=[];autosize=1;strokeColor=none;" vertex="1" parent="OhrNE6VcvfpsGNgGxQ-j-2">
          <mxGeometry x="90" y="30" width="40" height="20" as="geometry" />
        </mxCell>
      </root>
    </mxGraphModel>
  </diagram>
</mxfile>
